<?xml version="1.0" encoding="UTF-8"?>
<!DOCTYPE svg PUBLIC "-//W3C//DTD SVG 1.1//EN" "http://www.w3.org/Graphics/SVG/1.1/DTD/svg11.dtd">
<!-- Creator: CorelDRAW 2021 (64-Bit) -->
<svg xmlns="http://www.w3.org/2000/svg" xml:space="preserve" width="4.74769in" height="0.923in" version="1.1" style="shape-rendering:geometricPrecision; text-rendering:geometricPrecision; image-rendering:optimizeQuality; fill-rule:evenodd; clip-rule:evenodd"
viewBox="0 0 4264.62 829.09"
 xmlns:xlink="http://www.w3.org/1999/xlink"
 xmlns:xodm="http://www.corel.com/coreldraw/odm/2003">
 <defs>
  <style type="text/css">
   <![CDATA[
    .str0 {stroke:black;stroke-width:6.24;stroke-linecap:round;stroke-linejoin:round;stroke-miterlimit:2.61313}
    .fil0 {fill:url(#id0)}
    .fil2 {fill:url(#id1)}
    .fil1 {fill:url(#id2)}
    .fil3 {fill:url(#id3);fill-rule:nonzero}
   ]]>
  </style>
  <linearGradient id="id0" gradientUnits="userSpaceOnUse" x1="371.79" y1="-396.32" x2="493.28" y2="1272.47">
   <stop offset="0" style="stop-opacity:1; stop-color:blue"/>
   <stop offset="1" style="stop-opacity:1; stop-color:black"/>
  </linearGradient>
  <linearGradient id="id1" gradientUnits="userSpaceOnUse" xlink:href="#id0" x1="371.79" y1="-396.32" x2="493.28" y2="1272.47">
  </linearGradient>
  <linearGradient id="id2" gradientUnits="userSpaceOnUse" xlink:href="#id0" x1="371.79" y1="-396.32" x2="493.29" y2="1272.47">
  </linearGradient>
  <linearGradient id="id3" gradientUnits="userSpaceOnUse" xlink:href="#id0" x1="3038.31" y1="-89.03" x2="3025.7" y2="436.55">
  </linearGradient>
 </defs>
 <g id="Layer_x0020_1">
  <metadata id="CorelCorpID_0Corel-Layer"/>
  <g id="_2418391603568">
   <path class="fil0 str0" d="M227.16 3.12l736.61 0c35.18,0 63.95,28.78 63.95,63.95l0 0.01c0,35.18 -28.78,63.95 -63.95,63.95l-736.61 0c-35.18,0 -63.95,-28.78 -63.95,-63.95l0 -0.01c0,-35.18 28.78,-63.95 63.95,-63.95z"/>
   <path class="fil1 str0" d="M67.07 261.58l1056.78 0c35.18,0 63.95,28.78 63.95,63.95l0 0.01c0,35.18 -28.78,63.95 -63.95,63.95l-1056.78 0c-35.18,0 -63.95,-28.78 -63.95,-63.95l0 -0.01c0,-35.18 28.78,-63.95 63.95,-63.95z"/>
   <path class="fil2" d="M500.71 829.09c4.01,0 6.02,-1.91 9.58,-2.85l19.05 -11.66c0.91,-0.74 2.37,-1.63 3.44,-2.41l2.94 -2.18c0.11,-0.1 0.27,-0.25 0.38,-0.35l6.78 -5.66c5.85,-4.9 19.15,-13.67 24.12,-18.3l30.71 -24.14c0.65,-0.59 1,-0.99 1.52,-1.4l8.81 -6.55c1.09,-0.85 0.67,-0.41 1.64,-1.28l8.61 -6.75c1.43,-1.14 1.98,-1.36 3.37,-2.48 0.97,-0.79 0.92,-0.86 1.98,-1.68l8.67 -6.68c1.48,-0.95 1.73,-1.34 3.28,-2.57l20.13 -15.72c4.55,-3.25 8.79,-7.13 13.42,-10.72l25.98 -20.1c0.12,-0.1 0.28,-0.23 0.4,-0.33l26.2 -20.61c0.17,-0.12 0.71,-0.45 0.88,-0.58 2.73,-1.96 -1.78,1.39 0.84,-0.62l2.05 -1.6c1.05,-0.75 0.57,-0.31 1.72,-1.21l11.46 -9.02c0.12,-0.1 0.27,-0.24 0.39,-0.34l5.44 -4.08c7.06,-5.79 15.24,-9.34 23.68,-12.16 0.8,-0.27 2.55,-0.49 5.05,-0.68l190.52 0c35.18,0 63.96,-28.78 63.96,-63.96l0 0c0,-35.18 -28.78,-63.96 -63.96,-63.96l-736.6 0c-35.18,0 -63.96,28.78 -63.96,63.96l0 0c0,8.5 1.68,16.62 4.73,24.05 0.22,0.71 0.4,1.1 0.59,1.39 9.89,22.61 32.49,38.51 58.64,38.51l171.54 0c4.63,0.85 8.14,2.69 13.01,5.78l6.93 6.23c1.29,1.65 0.7,0.89 1.75,2.64l3.06 5.71c2.01,6.67 2.67,6.96 2.65,14.91 -0.02,11.11 -1.35,105.25 1.36,112.75 0.76,2.12 0.72,1.17 1.38,3.01 0.62,1.71 0.48,1.98 0.83,3.56 0.62,2.77 1.78,3.49 2.69,6.08 2.02,5.73 6.34,11.19 10.74,15.59 5.17,5.19 11.09,10.32 17.75,12.98 2.44,0.98 1.08,0.56 2.86,1.53l13.59 3.96 23.41 0z"/>
  </g>
  <path class="fil3" d="M1546.16 631.58l0 -359.33 -130.89 0 0 -79.03 356.86 0 0 79.03 -131.51 0 0 359.33 -94.46 0zm327.84 7.41c-34.17,0 -62.05,-7.92 -83.66,-23.77 -21.61,-15.85 -32.41,-37.97 -32.41,-66.37 0,-29.22 9.16,-51.76 27.47,-67.61 18.32,-15.85 45.38,-27.47 81.19,-34.88l106.81 -20.99c0,-21.4 -4.83,-37.56 -14.51,-48.47 -9.67,-10.91 -23.56,-16.36 -41.67,-16.36 -17.7,0 -31.49,4.01 -41.37,12.04 -9.88,8.03 -16.26,19.86 -19.14,35.5l-93.23 -4.32c6.17,-36.22 22.53,-63.7 49.09,-82.42 26.55,-18.73 61.43,-28.09 104.65,-28.09 49.39,0 86.54,11.73 111.44,35.19 24.9,23.46 37.35,57.83 37.35,103.11l0 112.99c0,9.47 1.55,15.74 4.63,18.83 3.09,3.09 7.72,4.63 13.89,4.63l9.26 0 0 63.59c-2.88,0.82 -7.51,1.65 -13.89,2.47 -6.38,0.82 -12.66,1.24 -18.83,1.24 -13.17,0 -25.42,-2.27 -36.73,-6.79 -11.32,-4.53 -20.48,-12.25 -27.48,-23.15 -7,-10.91 -10.49,-26.45 -10.49,-46.61l8.02 6.17c-4.12,14.82 -11.42,27.78 -21.92,38.9 -10.5,11.11 -24.08,19.75 -40.75,25.93 -16.67,6.17 -35.91,9.26 -57.73,9.26zm22.23 -63.59c15.23,0 28.61,-2.98 40.13,-8.95 11.53,-5.97 20.58,-14.72 27.17,-26.24 6.58,-11.53 9.88,-25.11 9.88,-40.75l0 -16.06 -75.32 16.06c-14.82,2.88 -26.04,7.72 -33.65,14.51 -7.61,6.79 -11.42,15.54 -11.42,26.24 0,11.11 3.7,19.76 11.11,25.93 7.41,6.17 18.11,9.26 32.11,9.26zm326.61 56.18c-27.17,0 -48.36,-6.79 -63.6,-20.37 -15.23,-13.58 -22.84,-35.6 -22.84,-66.06l0 -351.92 92.61 0 0 342.05c0,9.88 2.26,16.88 6.79,20.99 4.53,4.11 11.11,6.17 19.76,6.17l22.23 0 0 69.15 -54.95 0zm101.87 0l0 -438.36 92.61 0 0 243.26 122.86 -135.83 111.14 0 -128.42 136.45 132.12 194.49 -101.26 0 -90.76 -142.01 -45.69 48.78 0 93.23 -92.61 0zm506.89 0c-34.17,0 -59.27,-7.93 -75.33,-23.77 -16.05,-15.85 -24.08,-41.06 -24.08,-75.63l0 -309.32 92.61 0 0 298.21c0,16.05 3.4,26.96 10.19,32.72 6.79,5.76 16.98,8.64 30.56,8.64l46.31 0 0 69.15 -80.26 0zm-152.5 -261.78l0 -69.15 232.76 0 0 69.15 -232.76 0zm290.19 261.78l0 -330.93 87.67 0 3.09 96.31 -6.79 -1.85c5.35,-33.34 14.82,-57.42 28.4,-72.24 13.58,-14.82 32.31,-22.23 56.19,-22.23l30.25 0 0 76.56 -30.25 0c-17.29,0 -31.49,2.26 -42.6,6.79 -11.11,4.53 -19.45,11.73 -25.01,21.61 -5.56,9.88 -8.33,23.26 -8.33,40.13l0 185.84 -92.61 0zm339.58 7.41c-34.17,0 -62.05,-7.92 -83.66,-23.77 -21.61,-15.85 -32.41,-37.97 -32.41,-66.37 0,-29.22 9.16,-51.76 27.47,-67.61 18.32,-15.85 45.38,-27.47 81.19,-34.88l106.81 -20.99c0,-21.4 -4.83,-37.56 -14.51,-48.47 -9.67,-10.91 -23.56,-16.36 -41.67,-16.36 -17.7,0 -31.49,4.01 -41.37,12.04 -9.88,8.03 -16.26,19.86 -19.14,35.5l-93.23 -4.32c6.17,-36.22 22.53,-63.7 49.09,-82.42 26.55,-18.73 61.43,-28.09 104.65,-28.09 49.39,0 86.54,11.73 111.44,35.19 24.9,23.46 37.35,57.83 37.35,103.11l0 112.99c0,9.47 1.55,15.74 4.63,18.83 3.09,3.09 7.72,4.63 13.89,4.63l9.26 0 0 63.59c-2.88,0.82 -7.51,1.65 -13.89,2.47 -6.38,0.82 -12.66,1.24 -18.83,1.24 -13.17,0 -25.42,-2.27 -36.73,-6.79 -11.32,-4.53 -20.48,-12.25 -27.48,-23.15 -7,-10.91 -10.49,-26.45 -10.49,-46.61l8.02 6.17c-4.12,14.82 -11.42,27.78 -21.92,38.9 -10.5,11.11 -24.08,19.75 -40.75,25.93 -16.67,6.17 -35.91,9.26 -57.73,9.26zm22.23 -63.59c15.23,0 28.61,-2.98 40.13,-8.95 11.53,-5.97 20.58,-14.72 27.17,-26.24 6.58,-11.53 9.88,-25.11 9.88,-40.75l0 -16.06 -75.32 16.06c-14.82,2.88 -26.04,7.72 -33.65,14.51 -7.61,6.79 -11.42,15.54 -11.42,26.24 0,11.11 3.7,19.76 11.11,25.93 7.41,6.17 18.11,9.26 32.11,9.26zm390.2 63.59c-33.75,0 -63.18,-7.1 -88.29,-21.3 -25.11,-14.2 -44.66,-34.27 -58.65,-60.2 -14,-25.93 -20.99,-56.39 -20.99,-91.38 0,-34.99 7,-65.34 20.99,-91.07 13.99,-25.73 33.54,-45.79 58.65,-60.2 25.11,-14.4 54.54,-21.61 88.29,-21.61 29.23,0 55.47,5.15 78.72,15.44 23.26,10.29 42.09,25.11 56.49,44.45 14.41,19.34 23.26,42.6 26.55,69.77l-95.7 4.32c-2.88,-20.58 -10.19,-36.12 -21.92,-46.61 -11.73,-10.5 -26.45,-15.74 -44.15,-15.74 -23.05,0 -40.96,8.85 -53.71,26.55 -12.76,17.7 -19.14,42.6 -19.14,74.71 0,32.1 6.38,57.11 19.14,75.01 12.76,17.9 30.66,26.86 53.71,26.86 17.7,0 32.52,-5.46 44.45,-16.36 11.94,-10.91 19.14,-27.47 21.61,-49.7l95.7 3.7c-2.88,27.17 -11.42,50.73 -25.62,70.7 -14.2,19.96 -32.93,35.4 -56.18,46.31 -23.26,10.91 -49.91,16.36 -79.96,16.36zm213.01 -7.41l0 -438.36 92.61 0 0 243.26 122.86 -135.83 111.14 0 -128.42 136.45 132.12 194.49 -101.26 0 -90.76 -142.01 -45.69 48.78 0 93.23 -92.61 0z"/>
 </g>
</svg>
