<?xml version="1.0" encoding="UTF-8"?>
<!DOCTYPE svg PUBLIC "-//W3C//DTD SVG 1.1//EN" "http://www.w3.org/Graphics/SVG/1.1/DTD/svg11.dtd">
<!-- Creator: CorelDRAW 2021 (64-Bit) -->
<svg xmlns="http://www.w3.org/2000/svg" xml:space="preserve" width="4.74421in" height="0.919528in" version="1.1" style="shape-rendering:geometricPrecision; text-rendering:geometricPrecision; image-rendering:optimizeQuality; fill-rule:evenodd; clip-rule:evenodd"
viewBox="0 0 4263.99 826.45"
 xmlns:xlink="http://www.w3.org/1999/xlink"
 xmlns:xodm="http://www.corel.com/coreldraw/odm/2003">
 <defs>
  <style type="text/css">
   <![CDATA[
    .fil0 {fill:white}
    .fil1 {fill:white;fill-rule:nonzero}
   ]]>
  </style>
 </defs>
 <g id="Layer_x0020_1">
  <metadata id="CorelCorpID_0Corel-Layer"/>
  <g id="_2418077769872">
   <path class="fil0" d="M224.17 0l737.04 0c35.2,0 63.99,28.79 63.99,63.99l0 0.01c0,35.2 -28.79,63.99 -63.99,63.99l-737.04 0c-35.2,0 -63.99,-28.79 -63.99,-63.99l0 -0.01c0,-35.2 28.79,-63.99 63.99,-63.99z"/>
   <path class="fil0" d="M63.99 258.61l1057.4 0c35.2,0 63.99,28.79 63.99,63.99l0 0.01c0,35.2 -28.79,63.99 -63.99,63.99l-1057.4 0c-35.2,0 -63.99,-28.79 -63.99,-63.99l0 -0.01c0,-35.2 28.79,-63.99 63.99,-63.99z"/>
   <path class="fil0" d="M497.88 826.45c4.01,0 6.03,-1.91 9.59,-2.85l19.07 -11.67c0.91,-0.74 2.37,-1.63 3.45,-2.41l2.94 -2.18c0.11,-0.1 0.27,-0.25 0.38,-0.35l6.78 -5.66c5.86,-4.9 19.16,-13.68 24.13,-18.32l30.73 -24.16c0.65,-0.59 1,-0.99 1.52,-1.4l8.82 -6.55c1.09,-0.85 0.67,-0.41 1.64,-1.28l8.61 -6.76c1.43,-1.14 1.99,-1.36 3.37,-2.48 0.97,-0.79 0.92,-0.86 1.99,-1.68l8.68 -6.69c1.48,-0.96 1.73,-1.34 3.28,-2.57l20.14 -15.73c4.56,-3.25 8.8,-7.14 13.43,-10.73l25.99 -20.11c0.12,-0.1 0.28,-0.23 0.4,-0.33l26.22 -20.62c0.17,-0.12 0.71,-0.45 0.88,-0.58 2.74,-1.96 -1.78,1.39 0.84,-0.62l2.06 -1.6c1.05,-0.75 0.57,-0.31 1.72,-1.21l11.47 -9.03c0.12,-0.1 0.27,-0.24 0.39,-0.34l5.44 -4.08c7.07,-5.79 15.25,-9.35 23.69,-12.17 0.8,-0.27 2.55,-0.49 5.05,-0.68l190.63 0c35.2,0 63.99,-28.8 63.99,-63.99l0 0c0,-35.2 -28.8,-63.99 -63.99,-63.99l-737.03 0c-35.2,0 -63.99,28.8 -63.99,63.99l0 0c0,8.5 1.68,16.63 4.73,24.07 0.22,0.71 0.4,1.1 0.59,1.39 9.89,22.62 32.51,38.53 58.68,38.53l171.64 0c4.63,0.85 8.15,2.69 13.01,5.78l6.94 6.24c1.29,1.65 0.7,0.89 1.75,2.64l3.06 5.72c2.01,6.67 2.67,6.96 2.65,14.91 -0.02,11.12 -1.35,105.31 1.36,112.81 0.76,2.12 0.72,1.17 1.38,3.01 0.62,1.71 0.48,1.99 0.83,3.56 0.62,2.77 1.78,3.49 2.7,6.08 2.02,5.74 6.35,11.19 10.75,15.6 5.18,5.19 11.1,10.33 17.76,12.98 2.44,0.98 1.08,0.56 2.86,1.53l13.6 3.96 23.42 0z"/>
  </g>
  <path class="fil1" d="M1543.94 628.83l0 -359.54 -130.97 0 0 -79.07 357.07 0 0 79.07 -131.59 0 0 359.54 -94.52 0zm328.04 7.41c-34.19,0 -62.09,-7.93 -83.71,-23.79 -21.62,-15.86 -32.43,-37.99 -32.43,-66.41 0,-29.24 9.16,-51.79 27.49,-67.65 18.33,-15.86 45.41,-27.49 81.24,-34.9l106.87 -21c0,-21.41 -4.84,-37.58 -14.52,-48.5 -9.68,-10.91 -23.58,-16.37 -41.7,-16.37 -17.71,0 -31.51,4.02 -41.39,12.05 -9.89,8.03 -16.27,19.87 -19.15,35.52l-93.28 -4.32c6.18,-36.24 22.55,-63.74 49.11,-82.47 26.56,-18.74 61.47,-28.11 104.71,-28.11 49.42,0 86.59,11.74 111.51,35.21 24.91,23.48 37.37,57.86 37.37,103.17l0 113.05c0,9.47 1.55,15.75 4.63,18.84 3.09,3.09 7.72,4.64 13.9,4.64l9.26 0 0 63.63c-2.88,0.82 -7.52,1.65 -13.9,2.47 -6.38,0.82 -12.66,1.24 -18.84,1.24 -13.18,0 -25.43,-2.27 -36.75,-6.8 -11.33,-4.53 -20.49,-12.25 -27.49,-23.17 -7,-10.91 -10.5,-26.46 -10.5,-46.64l8.03 6.18c-4.12,14.83 -11.43,27.8 -21.93,38.92 -10.5,11.12 -24.09,19.77 -40.77,25.94 -16.68,6.18 -35.93,9.27 -57.76,9.27zm22.24 -63.63c15.24,0 28.62,-2.99 40.15,-8.96 11.53,-5.97 20.59,-14.72 27.18,-26.26 6.59,-11.53 9.88,-25.12 9.88,-40.77l0 -16.06 -75.37 16.06c-14.83,2.88 -26.05,7.72 -33.67,14.51 -7.62,6.8 -11.43,15.55 -11.43,26.26 0,11.12 3.7,19.77 11.12,25.95 7.42,6.18 18.12,9.27 32.13,9.27zm326.8 56.22c-27.18,0 -48.39,-6.79 -63.63,-20.39 -15.24,-13.59 -22.86,-35.63 -22.86,-66.1l0 -352.13 92.67 0 0 342.25c0,9.88 2.26,16.89 6.79,21 4.53,4.12 11.12,6.17 19.77,6.17l22.24 0 0 69.19 -54.98 0zm101.93 0l0 -438.62 92.67 0 0 243.4 122.93 -135.91 111.2 0 -128.5 136.53 132.2 194.6 -101.31 0 -90.81 -142.09 -45.71 48.81 0 93.28 -92.67 0zm507.19 0c-34.19,0 -59.31,-7.93 -75.37,-23.79 -16.06,-15.86 -24.09,-41.08 -24.09,-75.67l0 -309.5 92.67 0 0 298.38c0,16.06 3.4,26.98 10.19,32.74 6.79,5.77 16.99,8.65 30.58,8.65l46.33 0 0 69.19 -80.31 0zm-152.59 -261.93l0 -69.19 232.9 0 0 69.19 -232.9 0zm290.35 261.93l0 -331.13 87.72 0 3.09 96.37 -6.8 -1.85c5.35,-33.36 14.83,-57.45 28.42,-72.28 13.59,-14.83 32.33,-22.24 56.22,-22.24l30.27 0 0 76.6 -30.27 0c-17.3,0 -31.51,2.26 -42.63,6.79 -11.12,4.53 -19.46,11.74 -25.02,21.62 -5.56,9.88 -8.34,23.27 -8.34,40.15l0 185.95 -92.67 0zm339.77 7.41c-34.19,0 -62.09,-7.93 -83.71,-23.79 -21.62,-15.86 -32.43,-37.99 -32.43,-66.41 0,-29.24 9.16,-51.79 27.49,-67.65 18.33,-15.86 45.41,-27.49 81.24,-34.9l106.87 -21c0,-21.41 -4.84,-37.58 -14.52,-48.5 -9.68,-10.91 -23.58,-16.37 -41.7,-16.37 -17.71,0 -31.51,4.02 -41.39,12.05 -9.89,8.03 -16.27,19.87 -19.15,35.52l-93.28 -4.32c6.18,-36.24 22.55,-63.74 49.11,-82.47 26.56,-18.74 61.47,-28.11 104.71,-28.11 49.42,0 86.59,11.74 111.51,35.21 24.91,23.48 37.37,57.86 37.37,103.17l0 113.05c0,9.47 1.55,15.75 4.63,18.84 3.09,3.09 7.72,4.64 13.9,4.64l9.26 0 0 63.63c-2.88,0.82 -7.52,1.65 -13.9,2.47 -6.38,0.82 -12.66,1.24 -18.84,1.24 -13.18,0 -25.43,-2.27 -36.75,-6.8 -11.33,-4.53 -20.49,-12.25 -27.49,-23.17 -7,-10.91 -10.5,-26.46 -10.5,-46.64l8.03 6.18c-4.12,14.83 -11.43,27.8 -21.93,38.92 -10.5,11.12 -24.09,19.77 -40.77,25.94 -16.68,6.18 -35.93,9.27 -57.76,9.27zm22.24 -63.63c15.24,0 28.62,-2.99 40.15,-8.96 11.53,-5.97 20.59,-14.72 27.18,-26.26 6.59,-11.53 9.88,-25.12 9.88,-40.77l0 -16.06 -75.37 16.06c-14.83,2.88 -26.05,7.72 -33.67,14.51 -7.62,6.8 -11.43,15.55 -11.43,26.26 0,11.12 3.7,19.77 11.12,25.95 7.42,6.18 18.12,9.27 32.13,9.27zm390.43 63.63c-33.77,0 -63.22,-7.11 -88.34,-21.31 -25.12,-14.21 -44.68,-34.29 -58.69,-60.23 -14.01,-25.95 -21,-56.42 -21,-91.43 0,-35.01 7,-65.38 21,-91.12 14,-25.74 33.56,-45.82 58.69,-60.24 25.12,-14.41 54.57,-21.62 88.34,-21.62 29.24,0 55.5,5.15 78.77,15.45 23.27,10.29 42.11,25.12 56.52,44.48 14.42,19.36 23.27,42.62 26.57,69.81l-95.76 4.32c-2.88,-20.59 -10.19,-36.14 -21.93,-46.64 -11.74,-10.5 -26.46,-15.75 -44.17,-15.75 -23.06,0 -40.98,8.85 -53.75,26.56 -12.77,17.71 -19.15,42.62 -19.15,74.75 0,32.12 6.38,57.14 19.15,75.06 12.77,17.92 30.68,26.87 53.75,26.87 17.71,0 32.54,-5.46 44.48,-16.37 11.95,-10.91 19.15,-27.49 21.62,-49.73l95.76 3.7c-2.88,27.18 -11.43,50.76 -25.64,70.74 -14.21,19.97 -32.95,35.42 -56.22,46.33 -23.27,10.91 -49.94,16.37 -80,16.37zm213.13 -7.41l0 -438.62 92.67 0 0 243.4 122.93 -135.91 111.2 0 -128.5 136.53 132.2 194.6 -101.31 0 -90.81 -142.09 -45.71 48.81 0 93.28 -92.67 0z"/>
 </g>
</svg>
